<svg width="53px" height="39px" viewBox="0 0 53 39" version="1.1" xmlns="http://www.w3.org/2000/svg" xmlns:xlink="http://www.w3.org/1999/xlink">
    <!-- Generator: Sketch 43.2 (39069) - http://www.bohemiancoding.com/sketch -->
    <desc>Created with Sketch.</desc>
    <defs></defs>
    <g id="Symbols" stroke="none" stroke-width="1" fill="none" fill-rule="evenodd">
        <g id="icons/video" fill="#FFF9E0">
            <g id="Group-2">
                <path d="M21.9813458,6.47435945 L21.9813458,21.901106 C26.2901559,19.313447 30.4981763,16.7865346 34.8280068,14.1862949 C30.4847017,11.5788664 26.2887186,9.0602212 21.9813458,6.47435945 L21.9813458,6.47435945 Z M0,28.4058387 L52.8573492,28.4058387 L52.8573492,0 L0,0 L0,28.4058387 Z" id="Fill-1"></path>
                <path d="M32.3405495,36.8768594 C26.4735394,36.8768594 20.6063495,36.8836889 14.7391597,36.8657166 C14.1823902,36.8639193 13.8378004,37.0098548 13.4890784,37.4809101 C12.1351529,39.3104954 9.69104446,39.2484908 8.27603429,37.4451451 C8.04858344,37.1554309 7.57805124,36.9178364 7.20956649,36.9022004 C5.74532921,36.8405553 4.27695971,36.8856659 2.81020717,36.8734447 C1.75541734,36.8648179 1.24320378,36.4183848 1.25793599,35.5618226 C1.27194954,34.7455184 1.77284446,34.3143617 2.77481395,34.3051958 C4.27139022,34.2915368 5.76940378,34.333053 7.26400378,34.277159 C7.60661734,34.2645783 8.04588853,34.0352511 8.25681056,33.7631497 C9.66661056,31.9439885 12.1214987,31.8492742 13.4682377,33.6664585 C13.8428309,34.171841 14.2070038,34.3125645 14.7910817,34.3120253 C26.4056275,34.2974677 38.0201733,34.3010622 49.634719,34.3014216 C51.1025495,34.3014216 51.6524919,34.663205 51.6368614,35.6150207 C51.6217699,36.5312511 51.0865597,36.8765 49.6726275,36.8766797 C43.8952682,36.8772189 38.1179089,36.8768594 32.3405495,36.8768594" id="Fill-4"></path>
            </g>
        </g>
    </g>
</svg>
