<?xml version="1.0" encoding="UTF-8"?>
<svg width="62px" height="62px" viewBox="0 0 62 62" version="1.1" xmlns="http://www.w3.org/2000/svg" xmlns:xlink="http://www.w3.org/1999/xlink">
    <!-- Generator: Sketch 46.2 (44496) - http://www.bohemiancoding.com/sketch -->
    <title>Group 9</title>
    <desc>Created with Sketch.</desc>
    <defs></defs>
    <g id="Create" stroke="none" stroke-width="1" fill="none" fill-rule="evenodd">
        <g id="Tablet---Library/Images/Settings" transform="translate(-113.000000, -435.000000)">
            <g id="Group-9" transform="translate(116.000000, 438.000000)">
                <circle id="Oval-2" stroke="#FFF9E0" stroke-width="5" cx="28" cy="28" r="28"></circle>
                <g id="Group-7" transform="translate(11.000000, 16.000000)" fill="#FFF9E0">
                    <path d="M14,1.86256273 C10.5881244,5.43952241 7.26074246,8.92758263 3.82598309,12.5283354 C7.21871562,16.0687403 10.5700814,19.5661014 13.9859177,23.130732 C13.3088674,23.7625454 12.7072895,24.3240613 11.9829315,25 C7.99038129,20.838164 4.05856097,16.7394878 0,12.5088683 C3.98682928,8.34335525 7.93911294,4.21374805 11.9717097,0 C12.6652626,0.636788372 13.2943451,1.21474304 14,1.86256273" id="Fill-1"></path>
                    <path d="M35,12.5087593 C30.973278,16.7076156 27.0389827,20.8102274 23.0208432,25 C22.3155396,24.3500792 21.6879185,23.7719632 21,23.1382634 C24.4076834,19.5899767 27.7445063,16.1154415 31.1772769,12.5407687 C27.7823572,8.980803 24.4365117,5.47209558 21.003301,1.87211807 C21.6696532,1.25269268 22.2930931,0.672846502 23.0171021,0 C27.0315005,4.19063768 30.983621,8.31617513 35,12.5087593" id="Fill-4"></path>
                </g>
            </g>
        </g>
    </g>
</svg>