<svg width="50px" height="46px" viewBox="0 0 50 46" version="1.1" xmlns="http://www.w3.org/2000/svg" xmlns:xlink="http://www.w3.org/1999/xlink">
    <!-- Generator: Sketch 43.2 (39069) - http://www.bohemiancoding.com/sketch -->
    <desc>Created with Sketch.</desc>
    <defs>
        <polygon id="path-1" points="49.8411236 0.134859263 0.0759550562 0.134859263 0.0759550562 33.1894086 49.8411236 33.1894086 49.8411236 0.134859263"></polygon>
        <polygon id="path-3" points="1.26896322e-21 0.164475783 1.26896322e-21 24.0083062 49.886887 24.0083062 49.886887 0.164475783 0 0.164475783"></polygon>
    </defs>
    <g id="Symbols" stroke="none" stroke-width="1" fill="none" fill-rule="evenodd">
        <g id="icons/images">
            <g id="image-icon">
                <g id="Group-3" transform="translate(0.000000, 0.052706)">
                    <mask id="mask-2" fill="white">
                        <use xlink:href="#path-1"></use>
                    </mask>
                    <g id="Clip-2"></g>
                    <path d="M34.3553558,12.2128849 C34.3340075,9.22084737 31.9708989,6.85302632 29.0016105,6.84852476 C25.9948689,6.84383563 23.5853184,9.26211168 23.6017978,12.2676539 C23.6180899,15.2720707 26.0591011,17.6717778 29.0592884,17.6329518 C32.0218352,17.594501 34.3767041,15.1844778 34.3553558,12.2128849 L34.3553558,12.2128849 Z M49.8411236,0.13482175 L49.8411236,33.1894086 C49.5089139,32.877863 49.2716479,32.6677902 49.0480524,32.4440251 C46.1783895,29.5725919 43.3126592,26.697595 40.4414981,23.8278499 C39.3662172,22.7529147 38.7473034,22.7667945 37.7066667,23.8809308 C35.2149064,26.5496062 32.7255805,29.2207199 30.2379401,31.8933342 C30.0499251,32.0953417 29.8840075,32.3179814 29.6694007,32.5775714 C29.3238951,32.2525212 29.0740824,32.0298815 28.8377528,31.7935496 C24.8650936,27.8171707 20.8948689,23.8387287 16.9227715,19.8617872 C15.7710861,18.7084497 15.3008614,18.6945699 14.1098502,19.7987653 C9.64805243,23.9356998 5.18981273,28.0763856 0.728951311,32.2142579 C0.551423221,32.3787525 0.360973783,32.5291796 0.0759550562,32.7715137 L0.0759550562,0.13482175 L49.8411236,0.13482175 Z" id="Fill-1" fill="#FFF9E0" mask="url(#mask-2)"></path>
                </g>
                <g id="Group-6" transform="translate(0.000000, 21.997815)">
                    <mask id="mask-4" fill="white">
                        <use xlink:href="#path-3"></use>
                    </mask>
                    <g id="Clip-5"></g>
                    <path d="M15.6540075,0.164475783 C15.842397,0.448636817 15.9910861,0.77668807 16.2287266,1.01583349 C20.2143071,5.0250362 24.2098127,9.02373527 28.2053184,13.022997 C29.4118727,14.2303532 29.9661798,14.2228506 31.1429588,12.9637265 C33.7849064,10.1374965 36.4195506,7.30432656 39.131161,4.39444254 C39.3749813,4.62571024 39.5967041,4.82640483 39.8077528,5.03760306 C42.9641199,8.19751127 46.1324719,11.3454153 49.2555056,14.5379599 C49.5972659,14.8873935 49.8410861,15.49004 49.851573,15.9814604 C49.9092509,18.63363 49.8789139,21.2876753 49.8789139,24.0083062 L0.0839700375,24.0083062 C0.0571910112,23.8019847 0.00775280899,23.5971637 0.00737827715,23.3921551 C0.00213483146,20.6728371 -0.0124719101,17.9531441 0.0234831461,15.2343888 C0.028164794,14.8810163 0.209812734,14.4329234 0.464307116,14.1949034 C5.29389513,9.67252274 10.1465169,5.17508823 14.9961423,0.674465124 C15.131161,0.549171678 15.2875281,0.447136296 15.6540075,0.164475783" id="Fill-4" fill="#FFF9E0" mask="url(#mask-4)"></path>
                </g>
            </g>
        </g>
    </g>
</svg>
